<svg id="visual" viewBox="0 0 2560 1440" width="2560" height="1440" xmlns="http://www.w3.org/2000/svg" xmlns:xlink="http://www.w3.org/1999/xlink" version="1.1"><rect x="0" y="0" width="2560" height="1440" fill="#F7CACA"></rect><defs><linearGradient id="grad1_0" x1="43.8%" y1="0%" x2="100%" y2="100%"><stop offset="14.444444444444446%" stop-color="#f7caca" stop-opacity="1"></stop><stop offset="85.55555555555554%" stop-color="#f7caca" stop-opacity="1"></stop></linearGradient></defs><defs><linearGradient id="grad2_0" x1="0%" y1="0%" x2="56.3%" y2="100%"><stop offset="14.444444444444446%" stop-color="#f7caca" stop-opacity="1"></stop><stop offset="85.55555555555554%" stop-color="#f7caca" stop-opacity="1"></stop></linearGradient></defs><g transform="translate(2560, 0)"><path d="M0 1152C-152.6 1139.6 -305.2 1127.2 -440.9 1064.3C-576.5 1001.4 -695.3 887.9 -763.7 763.7C-832 639.5 -850 504.5 -906.3 375.4C-962.6 246.3 -1057.3 123.2 -1152 0L0 0Z" fill="#FFFFFF"></path></g><g transform="translate(0, 1440)"><path d="M0 -1152C162.7 -1146.1 325.3 -1140.2 440.5 -1063.4C555.6 -986.6 623.2 -838.8 731.1 -731.1C839.1 -623.5 987.4 -556 1064.3 -440.9C1141.2 -325.7 1146.6 -162.8 1152 0L0 0Z" fill="#FFFFFF"></path></g></svg>