<svg id="visual" viewBox="0 0 2560 1440" width="2560" height="1440" xmlns="http://www.w3.org/2000/svg" xmlns:xlink="http://www.w3.org/1999/xlink" version="1.1"><rect x="0" y="0" width="2560" height="1440" fill="#F7CACA"></rect><defs><linearGradient id="grad1_0" x1="43.8%" y1="0%" x2="100%" y2="100%"><stop offset="14.444444444444446%" stop-color="#f7caca" stop-opacity="1"></stop><stop offset="85.55555555555554%" stop-color="#f7caca" stop-opacity="1"></stop></linearGradient></defs><defs><linearGradient id="grad2_0" x1="0%" y1="0%" x2="56.3%" y2="100%"><stop offset="14.444444444444446%" stop-color="#f7caca" stop-opacity="1"></stop><stop offset="85.55555555555554%" stop-color="#f7caca" stop-opacity="1"></stop></linearGradient></defs><g transform="translate(2560, 0)"><path d="M0 929C-114.7 987.1 -229.5 1045.3 -333.7 1027.1C-438 1009 -531.7 914.6 -594.8 818.7C-657.9 722.9 -690.4 625.6 -745.9 541.9C-801.5 458.2 -880.1 388.1 -923.5 300.1C-966.8 212 -974.9 106 -983 0L0 0Z" fill="#FFFFFF"></path></g><g transform="translate(0, 1440)"><path d="M0 -952C123.5 -1011.3 247 -1070.6 333.7 -1027.1C420.5 -983.7 470.4 -837.4 549 -755.6C627.6 -673.9 735 -656.6 820.3 -596C905.7 -535.4 969.1 -431.3 999.6 -324.8C1030 -218.2 1027.5 -109.1 1025 0L0 0Z" fill="#FFFFFF"></path></g></svg>