<svg id="visual" viewBox="0 0 2560 600" width="2560" height="600" xmlns="http://www.w3.org/2000/svg" xmlns:xlink="http://www.w3.org/1999/xlink" version="1.1"><g stroke-width="1" stroke-linejoin="bevel"><path d="M1394.2 195L1450.2 367L1696.7 235Z" fill="#fdefef" stroke="#fdefef"></path><path d="M1450.2 367L1693.7 402L1696.7 235Z" fill="#f7caca" stroke="#f7caca"></path><path d="M1696.7 235L1452.2 0L1394.2 195Z" fill="#fdefef" stroke="#fdefef"></path><path d="M1981.1 234L1732.7 0L1696.7 235Z" fill="#fbdfdf" stroke="#fbdfdf"></path><path d="M1696.7 235L1732.7 0L1452.2 0Z" fill="#fadada" stroke="#fadada"></path><path d="M1154.8 600L1453.2 600L1450.2 367Z" fill="#f8cfcf" stroke="#f8cfcf"></path><path d="M1450.2 367L1453.2 600L1693.7 402Z" fill="#ffffff" stroke="#ffffff"></path><path d="M1453.2 600L1691.7 600L1693.7 402Z" fill="#fbdfdf" stroke="#fbdfdf"></path><path d="M1693.7 402L1981.1 234L1696.7 235Z" fill="#fbdfdf" stroke="#fbdfdf"></path><path d="M1109.8 0L1139.8 227L1394.2 195Z" fill="#ffffff" stroke="#ffffff"></path><path d="M1394.2 195L1134.8 379L1450.2 367Z" fill="#fde9e9" stroke="#fde9e9"></path><path d="M1139.8 227L1134.8 379L1394.2 195Z" fill="#fce4e4" stroke="#fce4e4"></path><path d="M2001.1 377L1981.1 234L1693.7 402Z" fill="#f7caca" stroke="#f7caca"></path><path d="M2008.1 600L2001.1 377L1693.7 402Z" fill="#fbdfdf" stroke="#fbdfdf"></path><path d="M1981.1 234L1965.1 0L1732.7 0Z" fill="#ffffff" stroke="#ffffff"></path><path d="M2259.6 0L1965.1 0L1981.1 234Z" fill="#ffffff" stroke="#ffffff"></path><path d="M1452.2 0L1109.8 0L1394.2 195Z" fill="#fadada" stroke="#fadada"></path><path d="M1139.8 227L851.3 213L1134.8 379Z" fill="#fadada" stroke="#fadada"></path><path d="M1134.8 379L1154.8 600L1450.2 367Z" fill="#f8cfcf" stroke="#f8cfcf"></path><path d="M1691.7 600L2008.1 600L1693.7 402Z" fill="#fdefef" stroke="#fdefef"></path><path d="M1109.8 0L851.3 213L1139.8 227Z" fill="#ffffff" stroke="#ffffff"></path><path d="M1134.8 379L848.3 600L1154.8 600Z" fill="#f7caca" stroke="#f7caca"></path><path d="M2008.1 600L2245.6 372L2001.1 377Z" fill="#fadada" stroke="#fadada"></path><path d="M2001.1 377L2245.6 372L1981.1 234Z" fill="#fffafa" stroke="#fffafa"></path><path d="M851.3 213L833.3 363L1134.8 379Z" fill="#fef4f4" stroke="#fef4f4"></path><path d="M1109.8 0L846.3 0L851.3 213Z" fill="#f9d4d4" stroke="#f9d4d4"></path><path d="M851.3 213L567.9 216L833.3 363Z" fill="#fef4f4" stroke="#fef4f4"></path><path d="M2245.6 372L2279.6 198L1981.1 234Z" fill="#fdefef" stroke="#fdefef"></path><path d="M2279.6 198L2259.6 0L1981.1 234Z" fill="#fde9e9" stroke="#fde9e9"></path><path d="M833.3 363L848.3 600L1134.8 379Z" fill="#fffafa" stroke="#fffafa"></path><path d="M2008.1 600L2310.6 600L2245.6 372Z" fill="#fce4e4" stroke="#fce4e4"></path><path d="M2560 411L2560 203L2279.6 198Z" fill="#fde9e9" stroke="#fde9e9"></path><path d="M846.3 0L600.9 0L851.3 213Z" fill="#f8cfcf" stroke="#f8cfcf"></path><path d="M833.3 363L575.9 600L848.3 600Z" fill="#fef4f4" stroke="#fef4f4"></path><path d="M600.9 0L567.9 216L851.3 213Z" fill="#fde9e9" stroke="#fde9e9"></path><path d="M567.9 216L560.9 390L833.3 363Z" fill="#fffafa" stroke="#fffafa"></path><path d="M2560 411L2279.6 198L2245.6 372Z" fill="#fce4e4" stroke="#fce4e4"></path><path d="M2279.6 198L2560 0L2259.6 0Z" fill="#fadada" stroke="#fadada"></path><path d="M560.9 390L575.9 600L833.3 363Z" fill="#fde9e9" stroke="#fde9e9"></path><path d="M2310.6 600L2560 411L2245.6 372Z" fill="#fde9e9" stroke="#fde9e9"></path><path d="M2560 203L2560 0L2279.6 198Z" fill="#fde9e9" stroke="#fde9e9"></path><path d="M2310.6 600L2560 600L2560 411Z" fill="#ffffff" stroke="#ffffff"></path><path d="M567.9 216L276.4 364L560.9 390Z" fill="#fef4f4" stroke="#fef4f4"></path><path d="M560.9 390L294.4 600L575.9 600Z" fill="#fffafa" stroke="#fffafa"></path><path d="M265.4 165L276.4 364L567.9 216Z" fill="#fbdfdf" stroke="#fbdfdf"></path><path d="M274.4 0L265.4 165L567.9 216Z" fill="#ffffff" stroke="#ffffff"></path><path d="M600.9 0L274.4 0L567.9 216Z" fill="#fdefef" stroke="#fdefef"></path><path d="M276.4 364L294.4 600L560.9 390Z" fill="#fdefef" stroke="#fdefef"></path><path d="M0 0L0 182L265.4 165Z" fill="#fbdfdf" stroke="#fbdfdf"></path><path d="M265.4 165L0 182L276.4 364Z" fill="#fffafa" stroke="#fffafa"></path><path d="M276.4 364L0 423L294.4 600Z" fill="#fef4f4" stroke="#fef4f4"></path><path d="M0 182L0 423L276.4 364Z" fill="#fde9e9" stroke="#fde9e9"></path><path d="M274.4 0L0 0L265.4 165Z" fill="#fffafa" stroke="#fffafa"></path><path d="M0 423L0 600L294.4 600Z" fill="#f9d4d4" stroke="#f9d4d4"></path></g></svg>