<svg id="visual" viewBox="0 0 2560 600" width="2560" height="600" xmlns="http://www.w3.org/2000/svg" xmlns:xlink="http://www.w3.org/1999/xlink" version="1.1"><rect x="0" y="0" width="2560" height="600" fill="#F7CACA"></rect><path d="M1760 600L1704.2 585.7C1648.3 571.3 1536.7 542.7 1593.2 514.2C1649.7 485.7 1874.3 457.3 1887.7 428.8C1901 400.3 1703 371.7 1581.2 343C1459.3 314.3 1413.7 285.7 1474.2 257C1534.7 228.3 1701.3 199.7 1772.5 171.2C1843.7 142.7 1819.3 114.3 1859.3 85.8C1899.3 57.3 2003.7 28.7 2055.8 14.3L2108 0L2560 0L2560 14.3C2560 28.7 2560 57.3 2560 85.8C2560 114.3 2560 142.7 2560 171.2C2560 199.7 2560 228.3 2560 257C2560 285.7 2560 314.3 2560 343C2560 371.7 2560 400.3 2560 428.8C2560 457.3 2560 485.7 2560 514.2C2560 542.7 2560 571.3 2560 585.7L2560 600Z" fill="#FFFFFF" stroke-linecap="round" stroke-linejoin="miter"></path></svg>